<svg xmlns="http://www.w3.org/2000/svg" xmlns:xlink="http://www.w3.org/1999/xlink" width="266" height="399.53" viewBox="0 0 266 399.53"><defs><linearGradient id="a" x1="0.5" x2="0.5" y2="1" gradientUnits="objectBoundingBox"><stop offset="0" stop-color="#002464"/><stop offset="1" stop-color="#001843"/></linearGradient></defs><g transform="translate(-55 -133.523)"><g transform="translate(55 134)" fill="url(#a)"><path d="M 265.5 398.5 L 0.5 398.5 L 0.5 0.5 L 265.5 0.5 L 265.5 398.5 Z" stroke="none"/><path d="M 1 1 L 1 398 L 265 398 L 265 1 L 1 1 M 0 0 L 266 0 L 266 399 L 0 399 L 0 0 Z" stroke="none" fill="#fff"/></g><line x2="265" transform="translate(55.5 333.5)" fill="none" stroke="#fff" stroke-width="1"/><path d="M2449.833,575.323s72.964-130.027,168.3-40.51c10.995,10.323,22.354,23.665,33.936,40.51" transform="translate(-2363 -42.553)" fill="none" stroke="#fff" stroke-width="1"/><path d="M2449.833,503.363s72.964,130.027,168.3,40.51c10.995-10.323,22.354-23.665,33.936-40.51" transform="translate(-2363 -369.556)" fill="none" stroke="#fff" stroke-width="1"/><g transform="translate(153 299)" fill="none" stroke="#fff" stroke-width="1"><circle cx="35" cy="35" r="35" stroke="none"/><circle cx="35" cy="35" r="34.5" fill="none"/></g><line x2="100" transform="translate(137.5 531.5)" fill="none" stroke="#fff" stroke-linecap="round" stroke-width="1"/><line x2="100" transform="translate(137.5 135.5)" fill="none" stroke="#fff" stroke-linecap="round" stroke-width="1"/></g></svg>