<?xml version="1.0" encoding="iso-8859-1"?>
<!-- Generator: Adobe Illustrator 19.0.0, SVG Export Plug-In . SVG Version: 6.00 Build 0)  -->
<svg version="1.1" id="Layer_1" xmlns="http://www.w3.org/2000/svg" xmlns:xlink="http://www.w3.org/1999/xlink" x="0px" y="0px"
	 viewBox="0 0 511.978 511.978" style="enable-background:new 0 0 511.978 511.978;" xml:space="preserve">
<path style="fill:#F5F7FA;" d="M506.326,256.018c0,138.246-112.09,250.32-250.344,250.32c-138.246,0-250.32-112.074-250.32-250.32
	c0-138.262,112.074-250.336,250.32-250.336C394.236,5.682,506.326,117.757,506.326,256.018z"/>
<g>
	<polygon style="fill:#434A54;" points="201.671,415.309 107.33,447.981 148.095,474.308 171,485.979 226.671,496.979 
		260.326,493.307 	"/>
	<path style="fill:#434A54;" d="M393.986,356.311l-3.312,38.344l7.312,61.482l16.998-7.828c0,0,35.344-36.999,35.688-37.999
		s28.998-42.327,28.998-42.327l6.656-44.998L393.986,356.311z"/>
	<polygon style="fill:#434A54;" points="320.332,201.988 219.999,169.333 163.673,252.987 224.999,342.656 325.676,308.985 	"/>
	<polygon style="fill:#434A54;" points="25.677,174.661 11.005,226.66 14.677,286.658 25.677,332.329 89.331,260.331 	"/>
	<polygon style="fill:#434A54;" points="447.328,104.976 416.984,75.305 396.674,61.977 396.674,158.052 477.982,183.301 
		492.326,181.645 	"/>
	<polygon style="fill:#434A54;" points="207.327,18.651 165.672,26.322 107.33,61.977 201.999,93.32 255.997,13.322 	"/>
</g>
<g>
	<path style="fill:#080808;" d="M328.082,191.911l-102.63-33.327c-4.391-1.438-9.203,0.125-11.922,3.859l-63.404,87.294
		c-2.718,3.719-2.718,8.781,0,12.531l63.404,87.278c2.047,2.812,5.281,4.405,8.625,4.405c1.109,0,2.219-0.188,3.297-0.531
		l102.63-33.342c4.375-1.438,7.344-5.531,7.344-10.141V202.051C335.426,197.426,332.457,193.333,328.082,191.911z M314.113,302.188
		l-87.88,28.547l-54.295-74.748l54.295-74.748l87.88,28.562V302.188z"/>
	<path style="fill:#080808;" d="M443.203,430.606c0.062-0.062,0.125-0.125,0.188-0.188c1.094-1.188,2.188-2.375,3.281-3.594
		l0.031-0.031c15.75-17.53,28.938-37.154,39.279-58.498l0.031-0.031c0.719-1.5,1.438-3.016,2.156-4.531
		c0.031-0.094,0.062-0.188,0.125-0.281c0.656-1.438,1.312-2.906,1.969-4.359c0.062-0.203,0.156-0.391,0.219-0.578
		c0.594-1.375,1.188-2.734,1.75-4.125c0.156-0.312,0.281-0.625,0.406-0.938c0.5-1.25,1.031-2.53,1.531-3.796
		c0.188-0.469,0.344-0.953,0.531-1.422c0.438-1.125,0.875-2.25,1.281-3.375c0.25-0.688,0.5-1.375,0.75-2.062
		c0.312-0.938,0.656-1.875,1-2.812c0.406-1.156,0.781-2.312,1.156-3.484c0.156-0.483,0.344-0.952,0.5-1.421
		c0.031-0.125,0.062-0.25,0.125-0.375c10.562-32.75,14.438-66.576,11.531-100.591c-2.844-32.968-11.938-64.686-27.031-94.294
		c-15.061-29.608-35.404-55.607-60.404-77.294c-25.873-22.437-55.686-39.233-88.527-49.905
		C309.393,4.262,282.77,0.028,255.965,0.028c-26.687,0-53.123,4.188-78.606,12.437c-0.656,0.219-1.312,0.438-1.969,0.656
		c-0.094,0.031-0.172,0.062-0.266,0.094c-26.64,8.656-51.436,21.437-73.716,37.999c-1.062,0.797-1.938,1.766-2.625,2.844
		c-39.343,30.53-68.451,71.31-84.732,118.652c0,0.016,0,0.031,0,0.031c-0.484,1.391-0.953,2.781-1.406,4.172
		c-0.484,1.484-0.953,2.984-1.406,4.484c-0.094,0.312-0.188,0.625-0.281,0.938c-0.438,1.438-0.859,2.875-1.266,4.312
		c-0.078,0.297-0.172,0.594-0.25,0.906c-0.359,1.266-0.703,2.531-1.031,3.812c-0.078,0.281-0.156,0.562-0.234,0.875
		c-0.344,1.344-0.687,2.719-1.015,4.078c-0.125,0.5-0.25,1-0.359,1.516c-0.281,1.156-0.547,2.312-0.797,3.469
		c-0.156,0.734-0.312,1.469-0.469,2.188c-0.156,0.75-0.312,1.5-0.469,2.25c-0.578,2.828-1.094,5.656-1.578,8.5
		c0,0.047,0,0.094-0.016,0.125c-5.219,31.249-4.562,62.967,2,93.981c0,0.016,0,0.031,0,0.047c0.359,1.703,0.75,3.406,1.141,5.094
		c4.687,20.281,11.828,39.904,21.39,58.686c15.078,29.593,35.405,55.607,60.404,77.279c25.89,22.437,55.686,39.248,88.513,49.92
		c25.718,8.359,52.342,12.578,79.138,12.578c26.68,0,53.116-4.172,78.584-12.422c24.248-7.859,47.092-19.234,67.998-33.796
		c0.062-0.062,0.125-0.094,0.219-0.156c0.281-0.219,0.594-0.422,0.875-0.641c0.438-0.297,0.844-0.578,1.25-0.859
		c0.375-0.281,0.75-0.562,1.156-0.844c0.656-0.469,1.312-0.938,1.938-1.438c0.719-0.5,1.406-1.03,2.125-1.562
		s1.406-1.078,2.125-1.625c0.625-0.469,1.25-0.953,1.875-1.438c0.748-0.594,1.529-1.219,2.279-1.812
		c0.531-0.438,1.094-0.875,1.625-1.312c0.812-0.688,1.625-1.344,2.438-2.031c0.469-0.375,0.938-0.781,1.406-1.156
		c0.875-0.75,1.75-1.5,2.594-2.25c0.406-0.344,0.781-0.672,1.156-1c0.938-0.828,1.844-1.656,2.75-2.469
		c0.312-0.281,0.625-0.562,0.938-0.844c0.969-0.906,1.938-1.797,2.906-2.703c0.219-0.234,0.469-0.453,0.688-0.672
		c1.031-0.969,2.031-1.938,3.031-2.922c0.156-0.172,0.344-0.344,0.5-0.516c1.062-1.031,2.094-2.094,3.125-3.156
		c0.125-0.109,0.25-0.219,0.344-0.344C441.078,432.872,442.14,431.747,443.203,430.606z M474.078,342.453
		c-0.375,1-0.781,2-1.188,2.969c-0.156,0.375-0.281,0.719-0.438,1.078c-0.531,1.297-1.094,2.578-1.656,3.859
		c0,0.031-0.031,0.094-0.062,0.125c-1.219,2.796-2.469,5.562-3.812,8.28c-0.062,0.172-0.156,0.344-0.25,0.5
		c-0.562,1.203-1.156,2.406-1.781,3.594c-0.094,0.156-0.156,0.344-0.25,0.5c-0.656,1.266-1.312,2.516-1.969,3.766
		c-0.031,0.047-0.062,0.094-0.094,0.141c-10.219,19.094-23.031,36.577-38.094,52.092l0,0c-4.281,4.391-8.75,8.625-13.373,12.688
		c-0.156,0.125-0.281,0.25-0.438,0.375c-0.938,0.828-1.906,1.656-2.875,2.469c-0.25,0.219-0.5,0.438-0.781,0.656
		c-0.875,0.719-1.75,1.469-2.656,2.188c-0.281,0.234-0.562,0.453-0.844,0.688c-0.219,0.172-0.438,0.344-0.625,0.516v-75.514
		l72.154-23.437c-0.156,0.375-0.281,0.75-0.438,1.156C474.422,341.578,474.265,342.015,474.078,342.453z M473.89,171.63
		l-71.029-23.078V74.586C434.484,100.242,459.109,133.881,473.89,171.63z M181.984,33.4c19.578-6.344,39.718-10.062,60.061-11.14
		l-43.53,59.904l-70.326-22.859C144.954,48.431,163.001,39.728,181.984,33.4z M21.865,271.846c-0.031-0.469-0.062-0.938-0.094-1.406
		c-0.047-0.953-0.109-1.891-0.156-2.828c-0.062-1.375-0.125-2.719-0.172-4.094c-0.016-0.562-0.016-1.125-0.031-1.703
		c-0.031-1.203-0.062-2.422-0.062-3.625c-0.016-0.453-0.016-0.922-0.016-1.391c0-1.672,0-3.344,0.031-5.031
		c0.016-0.172,0.016-0.344,0.016-0.5c0.047-1.75,0.094-3.469,0.172-5.219c0-0.078,0-0.156,0.016-0.25
		c0.422-9.484,1.438-18.968,3.031-28.405c0-0.031,0-0.031,0-0.062c0.641-3.703,1.344-7.39,2.156-11.062
		c0.047-0.188,0.078-0.375,0.125-0.547c0.672-3.047,1.422-6.078,2.219-9.109l43.122,59.373l-43.155,59.436
		C25.27,301.048,22.88,286.486,21.865,271.846z M128.705,452.512l69.826-22.688l43.171,59.42
		C201.374,486.964,162.766,474.418,128.705,452.512z M328.082,479.229c-19.281,6.25-39.154,9.938-59.256,11.047l-57.593-79.263
		c-2.718-3.734-7.531-5.297-11.921-3.875l-92.45,30.046c-24.593-20.234-44.983-45.482-59.857-74.701
		c-3.672-7.188-6.938-14.53-9.828-21.968l56.857-78.247c2.719-3.75,2.719-8.812,0-12.531l-56.857-78.248
		c14.609-37.968,38.436-70.966,69.779-96.653l92.341,29.999c1.078,0.344,2.188,0.531,3.297,0.531c3.344,0,6.578-1.594,8.625-4.406
		l57.593-79.248c20.211,1.125,40.24,4.859,59.709,11.187c18.875,6.141,36.654,14.5,53.029,24.843v98.56
		c0,4.625,2.969,8.718,7.375,10.14l94.215,30.608c10.062,38.468,10.094,78.841-0.094,117.903l-94.121,30.577
		c-4.406,1.422-7.375,5.516-7.375,10.14v98.467C364.861,464.699,346.926,473.136,328.082,479.229z"/>
</g>
<g>
</g>
<g>
</g>
<g>
</g>
<g>
</g>
<g>
</g>
<g>
</g>
<g>
</g>
<g>
</g>
<g>
</g>
<g>
</g>
<g>
</g>
<g>
</g>
<g>
</g>
<g>
</g>
<g>
</g>
</svg>
