<svg height="512pt" viewBox="-81 0 512 512" width="512pt" xmlns="http://www.w3.org/2000/svg"><path d="m0 0v512h350v-512zm130 30h90v40h-90zm90 452h-90v-40h90zm100 0h-70v-70h-150v70h-70v-211h71.507812c6.96875 34.191406 37.273438 60 73.492188 60s66.523438-25.808594 73.492188-60h71.507812zm-102.578125-211c-6.195313 17.460938-22.867187 30-42.421875 30s-36.226562-12.539062-42.421875-30zm-84.84375-30c6.195313-17.460938 22.867187-30 42.421875-30s36.226562 12.539062 42.421875 30zm187.421875 0h-71.507812c-6.96875-34.191406-37.273438-60-73.492188-60s-66.523438 25.808594-73.492188 60h-71.507812v-211h70v70h150v-70h70zm0 0"/></svg>